<svg xmlns="http://www.w3.org/2000/svg" width="163" height="163.399" viewBox="0 0 163 163.399">
  <g id="Feed-amico" transform="translate(-20.15 -28.064)">
    <g id="freepik--Floor--inject-1" transform="translate(20.15 97.36)">
      <ellipse id="Ellipse_11" data-name="Ellipse 11" cx="81.5" cy="47.052" rx="81.5" ry="47.052" fill="#f5f5f5"/>
    </g>
    <g id="freepik--Shadows--inject-1" transform="translate(35.474 109.824)">
      <path id="Path_1" data-name="Path 1" d="M132.128,271.77,86.041,298.387a5.624,5.624,0,0,1-5.059-.209L64.614,288.73c-1.5-.865-1.663-2.173-.355-2.921l46.087-26.617a5.635,5.635,0,0,1,5.059.209l16.365,9.448C133.263,269.714,133.436,271.022,132.128,271.77Z" transform="translate(-63.375 -258.687)" fill="#e0e0e0"/>
      <ellipse id="Ellipse_12" data-name="Ellipse 12" cx="32.289" cy="18.641" rx="32.289" ry="18.641" transform="translate(61.801 11.214)" fill="#e0e0e0"/>
      <ellipse id="Ellipse_13" data-name="Ellipse 13" cx="15.273" cy="8.817" rx="15.273" ry="8.817" transform="translate(49.049 40.044)" fill="#e0e0e0"/>
      <path id="Path_2" data-name="Path 2" d="M402.357,355.98c3.574,2.063,3.574,5.41,0,7.473a14.314,14.314,0,0,1-12.947,0c-3.574-2.063-3.574-5.41,0-7.473A14.347,14.347,0,0,1,402.357,355.98Z" transform="translate(-272.095 -320.492)" fill="#e0e0e0"/>
    </g>
    <g id="freepik--Character--inject-1" transform="translate(90.095 80.107)">
      <path id="Path_3" data-name="Path 3" d="M304.338,249.433c-2.049,13.22-15.368,27.216-35.771,23.309-.2-.035-.4-.074-.6-.117-.422-.089-.847-.181-1.273-.287-21.462-5.158-22.973-19.059-22.033-25.111s6.53-10.919,9.834-12.848,7.4-4.112,11.164-10.2c3.414-5.53,8.895-8.842,17.066-8.285l.727.057c.585.057,1.191.135,1.808.227C285.258,216.183,309.032,219.165,304.338,249.433Z" transform="translate(-234.88 -201.312)" fill="#07f"/>
      <path id="Path_4" data-name="Path 4" d="M304.338,249.433c-2.049,13.22-15.368,27.216-35.771,23.309-.2-.035-.4-.074-.6-.117-.422-.089-.847-.181-1.273-.287-21.462-5.158-22.973-19.059-22.033-25.111s6.53-10.919,9.834-12.848,7.4-4.112,11.164-10.2c3.414-5.53,8.895-8.842,17.066-8.285l.727.057c.585.057,1.191.135,1.808.227C285.258,216.183,309.032,219.165,304.338,249.433Z" transform="translate(-234.88 -201.312)" fill="#fff" opacity="0.6"/>
      <path id="Path_5" data-name="Path 5" d="M342.1,248.293c-1.96,12.656-13.4,26.156-30.726,24.107-.2-.035-.4-.074-.6-.117,16.964,1.656,28.142-11.671,30.077-24.167,3.878-25-10.281-31.169-15.319-32.559-.464-.131-.851-.216-1.141-.277l.674.1a11.18,11.18,0,0,1,1.195.238C330.743,216.691,346.122,222.36,342.1,248.293Z" transform="translate(-277.685 -200.951)" fill="#07f"/>
      <path id="Path_6" data-name="Path 6" d="M342.1,248.293c-1.96,12.656-13.4,26.156-30.726,24.107-.2-.035-.4-.074-.6-.117,16.964,1.656,28.142-11.671,30.077-24.167,3.878-25-10.281-31.169-15.319-32.559-.464-.131-.851-.216-1.141-.277l.674.1a11.18,11.18,0,0,1,1.195.238C330.743,216.691,346.122,222.36,342.1,248.293Z" transform="translate(-277.685 -200.951)" fill="#fff" opacity="0.4"/>
      <path id="Path_7" data-name="Path 7" d="M296.46,257.816s11.4-26.376-7.069-26.376c0,0-9.976-2.549-14.308,9.724S258.42,250.251,258.42,260c0,5.9,2.535,12.621,4.641,17a32.2,32.2,0,0,0,5.584,2.989l.082-.057s.737-6.1,5.187-9.09,14.39-5.913,17.659-8.377c3.088-2.322,9.455-1.535,10.483.078C301.522,261.425,299.523,257.487,296.46,257.816Z" transform="translate(-243.894 -211.241)" fill="#07f"/>
      <path id="Path_8" data-name="Path 8" d="M296.46,257.816s11.4-26.376-7.069-26.376c0,0-9.976-2.549-14.308,9.724S258.42,250.251,258.42,260c0,5.9,2.535,12.621,4.641,17a32.2,32.2,0,0,0,5.584,2.989l.082-.057s.737-6.1,5.187-9.09,14.39-5.913,17.659-8.377c3.088-2.322,9.455-1.535,10.483.078C301.522,261.425,299.523,257.487,296.46,257.816Z" transform="translate(-243.894 -211.241)" fill="#fff" opacity="0.4"/>
      <path id="Path_9" data-name="Path 9" d="M381.46,319.57c.082.184.128.294.128.294A.929.929,0,0,0,381.46,319.57Z" transform="translate(-323.315 -268.269)" fill="#07f"/>
      <path id="Path_10" data-name="Path 10" d="M258.67,324.177l.879,13.514s5.541.6,4.878-3.715a2.808,2.808,0,0,1-.213-1.517c.064-1.064,1.308-6.608,1.354-8.338Z" transform="translate(-244.056 -271.206)" fill="#ffa8a7"/>
      <path id="Path_11" data-name="Path 11" d="M260.326,335.278l.691.514,5.07-10.625-.716-1.017-.691.007-1.276,1.01-3.283,6.959Z" transform="translate(-244.992 -271.225)" fill="#f28f8f"/>
      <path id="Path_12" data-name="Path 12" d="M254.436,355.685s-1.145-2.223.5-2.8,2.677,0,2.786.613.181,1.51.181,1.51a6.1,6.1,0,0,0,1.751-3.084s2.545,2.241,2.34,3.4-2.155,3.651-2.4,4.431-.833,5.6-3.23,6.293-5.807.709-4.963-2.021c.287-.943,1.773-2.049,2.109-2.978S254.436,355.685,254.436,355.685Z" transform="translate(-239.279 -289.15)" fill="#07f"/>
      <path id="Path_13" data-name="Path 13" d="M258.7,378.815a4.584,4.584,0,0,0-5.024-2.68c-.05.213-.1.383-.135.5-.337.929-1.822,2.035-2.109,2.978-.837,2.744,2.574,2.716,4.963,2.021,1.11-.323,1.833-1.532,2.315-2.815Z" transform="translate(-239.302 -304.732)" fill="#ebebeb"/>
      <path id="Path_14" data-name="Path 14" d="M263.263,358.62a1.01,1.01,0,0,1,.021.408c-.23,1.212-2.308,3.786-2.57,4.609s-.954,5.839-3.471,6.534a8.964,8.964,0,0,1-3.563.3,6.85,6.85,0,0,0,4.254-.092c2.4-.709,2.992-5.509,3.23-6.293s2.194-3.269,2.4-4.431a1.648,1.648,0,0,0-.3-1.035Z" transform="translate(-240.835 -293.475)" fill="#263238"/>
      <path id="Path_15" data-name="Path 15" d="M262.809,362.556a.167.167,0,0,1-.117-.05,2.6,2.6,0,0,0-2.726-.479.164.164,0,1,1-.128-.3,3,3,0,0,1,3.088.546.167.167,0,0,1-.117.284Z" transform="translate(-244.745 -295.344)" fill="#ebebeb"/>
      <path id="Path_16" data-name="Path 16" d="M262.407,366.107a.159.159,0,0,1-.113-.046,2.6,2.6,0,0,0-2.73-.479.163.163,0,0,1-.216-.089.167.167,0,0,1,.089-.216,3,3,0,0,1,3.088.549.163.163,0,0,1,0,.23A.153.153,0,0,1,262.407,366.107Z" transform="translate(-244.485 -297.636)" fill="#ebebeb"/>
      <path id="Path_17" data-name="Path 17" d="M261.906,369.607a.163.163,0,0,1-.117-.046,2.583,2.583,0,0,0-2.726-.479.167.167,0,0,1-.131-.3,3,3,0,0,1,3.088.549.156.156,0,0,1,0,.23A.153.153,0,0,1,261.906,369.607Z" transform="translate(-244.168 -299.895)" fill="#ebebeb"/>
      <path id="Path_18" data-name="Path 18" d="M261.159,373.153a.166.166,0,0,1-.117-.05,2.6,2.6,0,0,0-2.726-.479.164.164,0,0,1-.128-.3,2.991,2.991,0,0,1,3.088.546.167.167,0,0,1-.117.284Z" transform="translate(-243.68 -302.183)" fill="#ebebeb"/>
      <path id="Path_19" data-name="Path 19" d="M282.4,284.358l-5.353,2.772-9.7,5.031a3.679,3.679,0,0,0-1.975,3.208v.188a5.881,5.881,0,0,1-.677.4,5.778,5.778,0,0,1-2.425.624,7.392,7.392,0,0,1-3.8-.971s-.036-1.6-.1-4.208,2.166-3.829,4.212-5.353,13.025-6.183,13.025-6.183Z" transform="translate(-243.866 -242.643)" fill="#455a64"/>
      <path id="Path_20" data-name="Path 20" d="M307,294.447l5.938-1.787.851.837-6.3,2.382Z" transform="translate(-275.252 -250.899)" fill="#37474f"/>
      <path id="Path_21" data-name="Path 21" d="M284.643,294.474l-12.008,6.775-.131.074-.709,1.539a5.777,5.777,0,0,1-2.425.624l1.315-2.765a3.637,3.637,0,0,1,1.478-1.6l10.543-6.027a7.674,7.674,0,0,1,.277-2.538,6.39,6.39,0,0,0,1.159,3.478A2.364,2.364,0,0,0,284.643,294.474Z" transform="translate(-250.962 -249.543)" fill="#37474f"/>
      <path id="Path_22" data-name="Path 22" d="M252.882,337l-7.675,16.17s-.6,3.272,1.524,3.272,2.482-1.088,2.482-1.088a10.457,10.457,0,0,1,2.017-3.9c1.815-2.528,7.424-7.445,8.629-10.955Z" transform="translate(-235.314 -279.52)" fill="#ffa8a7"/>
      <path id="Path_23" data-name="Path 23" d="M298.283,294.114s-1.064,4.651-3.059,6.261-3.63,2.7-10.334,4.116c-4.41.929-7.285,1.709-8.735,2.127a1.879,1.879,0,0,0-1.319,1.436,30.232,30.232,0,0,1-.815,3.191,8.792,8.792,0,0,1-6.97-3.492l2.549-4.878a8.023,8.023,0,0,1,2.857-3.095,91.115,91.115,0,0,1,9.246-5.155c5.208-2.421,5.917-2.865,5.917-2.865Z" transform="translate(-249.465 -250.318)" fill="#455a64"/>
      <path id="Path_24" data-name="Path 24" d="M298.223,247.854l-4.963,7.757,3.761,3.588,5.6-8.643S300.967,247.666,298.223,247.854Z" transform="translate(-266.383 -221.972)" fill="#ffa8a7"/>
      <path id="Path_25" data-name="Path 25" d="M307.26,233.067s2.978.776,3.676,2.7l5.995-7.246-.964-3.52a5.009,5.009,0,0,0-4.68,1.773A66.783,66.783,0,0,0,307.26,233.067Z" transform="translate(-275.42 -207.185)" fill="#07f"/>
      <path id="Path_26" data-name="Path 26" d="M307.26,233.067s2.978.776,3.676,2.7l5.995-7.246-.964-3.52a5.009,5.009,0,0,0-4.68,1.773A66.783,66.783,0,0,0,307.26,233.067Z" transform="translate(-275.42 -207.185)" opacity="0.2"/>
      <path id="Path_27" data-name="Path 27" d="M325.575,175.567s-1.418-1.17-3.067.638-.131,7.09-2.538,6.807c0,0,1.581,1.695,3.159.5a.5.5,0,0,1,.191-.089c.62-.121,1.191,1,1.439,1.393.688,1.092,1.283,2.233,1.971,3.322a10.13,10.13,0,0,0,2.68,3.286,5.406,5.406,0,0,0,4.715.057,9.551,9.551,0,0,0,4.538-5.626,7.37,7.37,0,0,0,.528-3.223,2.487,2.487,0,0,0-1.446-2.166s.528-4.212-4.963-5.25C327.674,174.249,325.575,175.567,325.575,175.567Z" transform="translate(-283.624 -174.863)" fill="#263238"/>
      <path id="Path_28" data-name="Path 28" d="M339.107,214.94l-.578,5.112,1.67.709s-8.154,4.1-10.036,3.474,2-5.559,2-5.559l.943.117.124-2.368Z" transform="translate(-289.871 -200.732)" fill="#ffa8a7"/>
      <path id="Path_29" data-name="Path 29" d="M343.956,217.632l-2.212-.032-2.152.546-.092,1.7C343.006,219.057,343.956,217.632,343.956,217.632Z" transform="translate(-296.23 -202.449)" fill="#ff9090"/>
      <path id="Path_30" data-name="Path 30" d="M330.07,181.19s-2.347,1.064-2.943,6.1.252,7.363,3.414,7.363c2.542,0,5.541-.355,6.824-2.024.312-.411.95-10.309-1.73-11.7S330.07,181.19,330.07,181.19Z" transform="translate(-288.129 -178.418)" fill="#ffa8a7"/>
      <path id="Path_31" data-name="Path 31" d="M335.75,180.107s-.11,5.374,6,7.044c0,0-.443,2.836,1.276,2.836H344.7v-4.963a5.644,5.644,0,0,0-5.644-5.644H336.5a.752.752,0,0,0-.748.748Z" transform="translate(-293.809 -177.779)" fill="#263238"/>
      <path id="Path_32" data-name="Path 32" d="M333.614,199.27v3.063l-1.794-.549Z" transform="translate(-291.273 -190.617)" fill="#ff9090"/>
      <circle id="Ellipse_14" data-name="Ellipse 14" cx="0.464" cy="0.464" r="0.464" transform="translate(43.731 9.234)" fill="#263238"/>
      <path id="Path_33" data-name="Path 33" d="M331.806,199.154a.468.468,0,1,1-.464-.464A.468.468,0,0,1,331.806,199.154Z" transform="translate(-290.66 -190.243)" fill="#263238"/>
      <path id="Path_34" data-name="Path 34" d="M330.56,193.82l1.159-.333s-.28-.5-.727-.355A.72.72,0,0,0,330.56,193.82Z" transform="translate(-290.459 -186.638)" fill="#263238"/>
      <path id="Path_35" data-name="Path 35" d="M356.135,203.37a3.407,3.407,0,0,1,.273-1.478,1.571,1.571,0,0,1,1.358-1.064,1.768,1.768,0,0,1,1.755,2,3.205,3.205,0,0,1-3.318,2.989Z" transform="translate(-306.966 -191.623)" fill="#ffaaa8"/>
      <path id="Path_36" data-name="Path 36" d="M317.547,225.251l-1.748-.131s-6.541,4.868-6.123,8.246a7.594,7.594,0,0,0,1.251,3.63,1.368,1.368,0,0,1,.223,1.1,11.892,11.892,0,0,1-1.492,3.981A15.024,15.024,0,0,1,307,244.53a14.712,14.712,0,0,0,5.786,5.5c3.808,1.879,9.944,2.049,11.284,1.064l1.773-10.15.879-13.085-1.468-.674s-7.023,3.3-9.217,3.109C314.909,230.2,317.547,225.251,317.547,225.251Z" transform="translate(-275.252 -207.303)" fill="#07f"/>
      <path id="Path_37" data-name="Path 37" d="M328.7,260.493a5.485,5.485,0,0,0,3.4,1.064,5.073,5.073,0,0,0,3.41-1.227,3.867,3.867,0,0,1-3.46,1.741A3.638,3.638,0,0,1,328.7,260.493Z" transform="translate(-289.259 -230.031)" opacity="0.2"/>
      <path id="Path_38" data-name="Path 38" d="M329.238,266.15l-1.046,4.587a60.17,60.17,0,0,0-6.52-1.1,35.355,35.355,0,0,1-4.722-.709l.245,4.275a46.894,46.894,0,0,0,9.136,2.545c4.368.631,5.527.468,6.651-3.084s1.532-4.963,1.532-4.963Z" transform="translate(-281.674 -233.787)" fill="#ffa8a7"/>
      <path id="Path_39" data-name="Path 39" d="M355.5,232.86s-3.251,2.336-2.889,7.53c0,0-.9,3.9-1,4.254a9.252,9.252,0,0,0,5.275,1.546l2.156-7.778a4.127,4.127,0,0,0-1.666-4.545A12.708,12.708,0,0,0,355.5,232.86Z" transform="translate(-304.047 -212.299)" fill="#07f"/>
      <path id="Path_40" data-name="Path 40" d="M355.5,232.86s-3.251,2.336-2.889,7.53c0,0-.9,3.9-1,4.254a9.252,9.252,0,0,0,5.275,1.546l2.156-7.778a4.127,4.127,0,0,0-1.666-4.545A12.708,12.708,0,0,0,355.5,232.86Z" transform="translate(-304.047 -212.299)" opacity="0.2"/>
      <path id="Path_41" data-name="Path 41" d="M311.173,272l-.1-.457-1.964-9.161s.145-.294.248-.51a.749.749,0,0,1,.152.128.932.932,0,0,1,.213.4l2,8.675.032.128C311.882,271.74,311.173,272,311.173,272Z" transform="translate(-276.614 -231.025)" fill="#37474f"/>
      <path id="Path_42" data-name="Path 42" d="M300.054,259.027l-.4.383-4.8-1.606-.4-.131.216-.209a.478.478,0,0,1,.117-.092.663.663,0,0,1,.511-.085l4.389,1.5A.893.893,0,0,1,300.054,259.027Z" transform="translate(-267.158 -228.054)" fill="#455a64"/>
      <path id="Path_43" data-name="Path 43" d="M294.256,258.508l2.184,8.728a1.149,1.149,0,0,0,.709.794l4.155,1.606a.354.354,0,0,0,.482-.415l-2.038-8.8a.883.883,0,0,0-.574-.642l-4.584-1.567a.252.252,0,0,0-.333.3Z" transform="translate(-267.021 -228.651)" fill="#263238"/>
      <path id="Path_44" data-name="Path 44" d="M231.338,384.54a2.836,2.836,0,0,1-2.375.266s.578-1.485-.514-2.127-2.163-.642-2.443.277l-.284.918s-2.744,2.152-3.776,2.811-2.017,1.156-2.786,1.652-2.748,1.936-1.035,3.747,6.8.879,8.094-1.188,5.013-1.064,5.013-3.566A15,15,0,0,1,231.338,384.54Z" transform="translate(-217.447 -308.713)" fill="#07f"/>
      <path id="Path_45" data-name="Path 45" d="M221.473,395.62c-.854.518-1.663.936-2.311,1.354-.766.493-2.748,1.936-1.035,3.747,1.315,1.4,4.634,1.163,6.683.039C224.876,396.595,222.338,395.865,221.473,395.62Z" transform="translate(-217.448 -317.358)" fill="#ebebeb"/>
      <path id="Path_46" data-name="Path 46" d="M226.546,400.158c-1.361,2.177-6.736,3.162-8.526,1.251-.082-.085-.152-.17-.22-.255a2.63,2.63,0,0,0,.553.826c1.712,1.815,6.8.879,8.094-1.188,1.23-1.964,4.651-1.145,4.985-3.223C230.4,398.758,227.645,398.4,226.546,400.158Z" transform="translate(-217.675 -318.617)" fill="#263238"/>
      <path id="Path_47" data-name="Path 47" d="M242.579,388.795a.166.166,0,0,1-.163-.135,2.627,2.627,0,0,0-1.964-1.953.165.165,0,1,1,.067-.323,2.972,2.972,0,0,1,2.223,2.216.167.167,0,0,1-.135.191Z" transform="translate(-232.212 -311.394)" fill="#ebebeb"/>
      <path id="Path_48" data-name="Path 48" d="M240,390.83a.167.167,0,0,1-.163-.135,2.626,2.626,0,0,0-1.964-1.95.167.167,0,0,1-.128-.2.163.163,0,0,1,.2-.128,2.964,2.964,0,0,1,2.223,2.212.163.163,0,0,1-.135.192Z" transform="translate(-230.546 -312.71)" fill="#ebebeb"/>
      <path id="Path_49" data-name="Path 49" d="M237.049,393.12a.167.167,0,0,1-.163-.135,2.584,2.584,0,0,0-1.964-1.95.17.17,0,0,1-.128-.2.163.163,0,0,1,.2-.124,2.964,2.964,0,0,1,2.223,2.212.163.163,0,0,1-.135.191Z" transform="translate(-228.642 -314.188)" fill="#ebebeb"/>
      <path id="Path_50" data-name="Path 50" d="M234.535,395.014a.163.163,0,0,1-.16-.138,2.6,2.6,0,0,0-1.964-1.95.167.167,0,0,1-.128-.2.163.163,0,0,1,.195-.128,2.993,2.993,0,0,1,2.219,2.216.163.163,0,0,1-.131.191Z" transform="translate(-227.022 -315.408)" fill="#ebebeb"/>
      <path id="Path_51" data-name="Path 51" d="M335.75,209.129a2.836,2.836,0,0,0,1.773-.479s.121.939-.663,1.117A1.01,1.01,0,0,1,335.75,209.129Z" transform="translate(-293.81 -196.672)" fill="#ff9090"/>
      <path id="Path_52" data-name="Path 52" d="M293.313,267.076c-.085-.128-.046-.3-.085-.507a3.5,3.5,0,0,0-.415-1.035,1.063,1.063,0,0,0-.355-.45.408.408,0,0,0-.532.067.578.578,0,0,0-.074.308,4.478,4.478,0,0,0,.124,1.461c.113.355-.11.819-.16,1.166-.082.542.131.769.259,1.308a2,2,0,0,0,2.482,1.549c2.482-.454,2.389-3.779,2.056-4.236s-.9-.73-1.861.067c-.312.259-.83.592-1.266.429A.333.333,0,0,1,293.313,267.076Z" transform="translate(-265.44 -233.054)" fill="#ffa8a7"/>
      <path id="Path_53" data-name="Path 53" d="M305.132,270.822a4.917,4.917,0,0,0-2.694-2.262l.354,1.475a9.863,9.863,0,0,1-2.818.138c-1.092-.2-3.095-1.461-2.776-.021a4.874,4.874,0,0,0,1.464,3.042,5.786,5.786,0,0,0,3.067,1.333c1.181.092,2.709.241,2.709.241Z" transform="translate(-268.903 -235.343)" fill="#ffa8a7"/>
      <path id="Path_54" data-name="Path 54" d="M298.471,274.794a.085.085,0,0,1-.05-.018,4.908,4.908,0,0,1-1.5-3.088c-.071-.323-.035-.542.11-.667.3-.262.971,0,1.687.252a7.1,7.1,0,0,0,1.064.354,4.34,4.34,0,0,0,.479.05.082.082,0,1,1,0,.163,3.385,3.385,0,0,1-.5-.053,7.021,7.021,0,0,1-1.1-.355c-.61-.227-1.3-.482-1.524-.284-.092.082-.11.252-.057.507a4.772,4.772,0,0,0,1.436,2.992.085.085,0,0,1,0,.117A.075.075,0,0,1,298.471,274.794Z" transform="translate(-268.726 -236.861)" fill="#ff9090"/>
      <path id="Path_55" data-name="Path 55" d="M368.723,189.934a4.474,4.474,0,0,1,4.712.177,5.594,5.594,0,0,1,2.35,4.2c.259,3.435-1.039,4.435-2.347,8.551-.429,1.347,0,2.939,3.428,4.524,0,0-8.9,1.723-7.374-7.218,1.106-6.488-1.262-6.247-1.262-6.247Z" transform="translate(-314.775 -184.213)" fill="#263238"/>
    </g>
    <g id="freepik--Plant--inject-1" transform="translate(149.613 120.372)">
      <path id="Path_56" data-name="Path 56" d="M412.235,307.456s-4.456-4.354-1.918-11.646c1.418-4.088,6.133-7.09,8.817-7.37a12.544,12.544,0,0,0-2.1,3.545l-3.379,2.248,3.106-.971-.659,2.659s-2.889,1.744-3.318,2.127l3.113-.815S415.659,304.751,412.235,307.456Z" transform="translate(-400.954 -288.44)" fill="#07f"/>
      <path id="Path_57" data-name="Path 57" d="M412.235,307.456s-4.456-4.354-1.918-11.646c1.418-4.088,6.133-7.09,8.817-7.37a12.544,12.544,0,0,0-2.1,3.545l-3.379,2.248,3.106-.971-.659,2.659s-2.889,1.744-3.318,2.127l3.113-.815S415.659,304.751,412.235,307.456Z" transform="translate(-400.954 -288.44)" opacity="0.4"/>
      <path id="Path_58" data-name="Path 58" d="M415.241,315.822s-2.308-9.111,1.11-14.422C416.351,301.4,412.352,306.087,415.241,315.822Z" transform="translate(-403.96 -296.805)" fill="#fff"/>
      <path id="Path_59" data-name="Path 59" d="M411.585,345.437l-5.456-.067h-.057l-5.452.067s-.06,6.718,2.007,9.455h0a4.645,4.645,0,0,0,3.474,1.237,4.581,4.581,0,0,0,3.478-1.241C411.645,352.152,411.585,345.437,411.585,345.437Z" transform="translate(-395.199 -325.187)" fill="#37474f"/>
      <ellipse id="Ellipse_15" data-name="Ellipse 15" cx="5.481" cy="2.942" rx="5.481" ry="2.942" transform="translate(5.421 17.308)" fill="#455a64"/>
      <path id="Path_60" data-name="Path 60" d="M408.354,340.946c1.886,0,3.485.6,4.045,1.443a1.177,1.177,0,0,0,.22-.663c0-1.163-1.907-2.106-4.254-2.106s-4.254.943-4.254,2.106a1.177,1.177,0,0,0,.22.663C404.869,341.549,406.468,340.946,408.354,340.946Z" transform="translate(-397.452 -321.476)" fill="#263238"/>
      <path id="Path_61" data-name="Path 61" d="M408.715,343.36c-1.886,0-3.485.6-4.045,1.443.56.837,2.159,1.443,4.045,1.443s3.485-.606,4.045-1.443C412.2,343.963,410.6,343.36,408.715,343.36Z" transform="translate(-397.814 -323.89)" fill="#e0e0e0"/>
      <path id="Path_62" data-name="Path 62" d="M396.3,322.779s-2.127-.082-3.924-2.886c-.748-1.159-1.11-1.773-1.11-1.773l2.946-.22-3.3-.826-1.556-2.382,2.737-.206a13.385,13.385,0,0,0-3.5-.709,43.13,43.13,0,0,0-3.265-5.1,14.329,14.329,0,0,1,9.98,4.963C399.461,318.539,396.912,322.907,396.3,322.779Z" transform="translate(-385.33 -301.505)" fill="#07f"/>
      <path id="Path_63" data-name="Path 63" d="M403.322,325.245s1.322-7.959-7.112-12.745C396.21,312.5,404.963,316.7,403.322,325.245Z" transform="translate(-392.353 -303.97)" fill="#fff"/>
      <path id="Path_64" data-name="Path 64" d="M414.606,327.141s1.914.124,3.815-2.237c.783-.971,1.163-1.485,1.163-1.485l-2.634-.475,3.052-.436,1.631-2-2.45-.44a12.325,12.325,0,0,1,3.223-.326,39.07,39.07,0,0,1,3.425-4.29,12.982,12.982,0,0,0-9.469,3.545C412.153,323.018,414.039,327.2,414.606,327.141Z" transform="translate(-403.638 -305.867)" fill="#07f"/>
      <path id="Path_65" data-name="Path 65" d="M414.606,327.141s1.914.124,3.815-2.237c.783-.971,1.163-1.485,1.163-1.485l-2.634-.475,3.052-.436,1.631-2-2.45-.44a12.325,12.325,0,0,1,3.223-.326,39.07,39.07,0,0,1,3.425-4.29,12.982,12.982,0,0,0-9.469,3.545C412.153,323.018,414.039,327.2,414.606,327.141Z" transform="translate(-403.638 -305.867)" opacity="0.2"/>
      <path id="Path_66" data-name="Path 66" d="M416.2,328.73s-.45-7.307,7.615-10.831C423.813,317.9,415.521,320.871,416.2,328.73Z" transform="translate(-405.23 -307.456)" fill="#fff"/>
    </g>
    <g id="freepik--Device--inject-1" transform="translate(41.251 28.064)">
      <path id="Path_67" data-name="Path 67" d="M96,145.828,132.078,125c2.545-1.471,4.609-5.413,4.609-8.806V38.934c0-3.393-2.063-4.963-4.609-3.481L96,56.281c-2.545,1.471-4.609,5.413-4.609,8.806v77.264C91.39,145.74,93.453,147.314,96,145.828Z" transform="translate(-87.235 -32.473)" fill="#455a64"/>
      <path id="Path_68" data-name="Path 68" d="M84.279,49.451l36.079-20.831a3,3,0,0,1,2.875-.316h0a2.049,2.049,0,0,1,.28.163l4.041,2.347a2.936,2.936,0,0,0-3.045.227L88.434,51.872c-2.545,1.471-4.609,5.413-4.609,8.806v77.264c0,1.794.578,3.074,1.5,3.666l-3.988-2.322h0c-1.017-.542-1.663-1.868-1.663-3.769V58.257C79.67,54.864,81.733,50.922,84.279,49.451Z" transform="translate(-79.67 -28.064)" fill="#37474f"/>
      <path id="Path_69" data-name="Path 69" d="M83.825,115.651v77.263c0,1.794.578,3.074,1.5,3.666l-3.988-2.322h0c-1.017-.542-1.663-1.868-1.663-3.769V113.23h0l4.155,2.4Z" transform="translate(-79.67 -83.037)" fill="#263238"/>
      <path id="Path_70" data-name="Path 70" d="M79.67,130.15l4.155,2.4v1.872l-4.155-2.4Z" transform="translate(-79.67 -93.959)" fill="#37474f"/>
      <path id="Path_71" data-name="Path 71" d="M83.58,154.556h0c.355.213.674,0,.674-.511v-4.027a1.613,1.613,0,0,0-.674-1.287h0c-.355-.213-.67,0-.67.51v4.027A1.62,1.62,0,0,0,83.58,154.556Z" transform="translate(-81.761 -105.9)" fill="#37474f"/>
      <path id="Path_72" data-name="Path 72" d="M84.705,153.543v-4.027a1.613,1.613,0,0,0-.674-1.287.429.429,0,0,0-.422-.039h0l.493-.273h0a.425.425,0,0,1,.436.032,1.61,1.61,0,0,1,.674,1.287v4.027a.6.6,0,0,1-.227.539h0l-.528.273h0a.585.585,0,0,0,.248-.532Z" transform="translate(-82.213 -105.398)" fill="#455a64"/>
      <path id="Path_73" data-name="Path 73" d="M83.58,182.056h0c.355.216.674,0,.674-.507v-4.038a1.6,1.6,0,0,0-.674-1.283h0c-.355-.216-.67,0-.67.507v4.038A1.613,1.613,0,0,0,83.58,182.056Z" transform="translate(-81.761 -123.647)" fill="#37474f"/>
      <path id="Path_74" data-name="Path 74" d="M84.705,181.076v-4.038a1.6,1.6,0,0,0-.674-1.283.422.422,0,0,0-.422-.039h0l.5-.259h0a.425.425,0,0,1,.436.032,1.613,1.613,0,0,1,.674,1.287V180.8a.6.6,0,0,1-.227.539h0l-.528.277h0a.578.578,0,0,0,.238-.542Z" transform="translate(-82.213 -123.174)" fill="#455a64"/>
      <path id="Path_75" data-name="Path 75" d="M101.8,63.85,137.28,43.373a.978.978,0,0,1,1.446.854V121.59a9.023,9.023,0,0,1-4.066,7.044l-34.6,19.974a1.064,1.064,0,0,1-1.617-.932V69.66A7.469,7.469,0,0,1,101.8,63.85Z" transform="translate(-91.785 -37.869)" fill="#07f"/>
      <path id="Path_76" data-name="Path 76" d="M101.8,63.85,137.28,43.373a.978.978,0,0,1,1.446.854V121.59a9.023,9.023,0,0,1-4.066,7.044l-34.6,19.974a1.064,1.064,0,0,1-1.617-.932V69.66A7.469,7.469,0,0,1,101.8,63.85Z" transform="translate(-91.785 -37.869)" fill="#fff" opacity="0.5"/>
      <path id="Path_77" data-name="Path 77" d="M151.95,58.67l-.549,2.315L139.648,67.76l-2.028-1.081Z" transform="translate(-117.076 -47.82)" fill="#455a64"/>
      <path id="Path_78" data-name="Path 78" d="M168.3,62.962c0,.383.269.539.6.355a1.329,1.329,0,0,0,.6-1.042c0-.383-.269-.539-.6-.355a1.337,1.337,0,0,0-.6,1.042Z" transform="translate(-136.879 -49.867)" fill="#263238"/>
      <path id="Path_79" data-name="Path 79" d="M145.315,71.3a.383.383,0,0,0,.184-.046l6-3.357a.375.375,0,1,0-.365-.656L145.131,70.6a.376.376,0,0,0,.184.705Z" transform="translate(-121.8 -53.323)" fill="#263238"/>
    </g>
    <g id="freepik--Screen--inject-1" transform="translate(54.13 34.197)">
      <path id="Path_80" data-name="Path 80" d="M157.765,136.008c-7.75,4.609-27.915,16.662-37.894,22.668A1.96,1.96,0,0,1,116.9,157V73.606a5.439,5.439,0,0,1,2.691-4.694l38.355-22.48a1.96,1.96,0,0,1,2.95,1.691v82.358A6.427,6.427,0,0,1,157.765,136.008Z" transform="translate(-116.581 -45.881)" fill="#f5f5f5"/>
      <path id="Path_81" data-name="Path 81" d="M157.028,135.226q-9.122,5.445-18.247,10.9l-10.8,6.459-4.931,2.957-2.155,1.3a12.962,12.962,0,0,1-2.074,1.209,1.679,1.679,0,0,1-2.194-1.638V73.26a5.293,5.293,0,0,1,2.645-4.662c.879-.521,1.773-1.035,2.645-1.549l12.39-7.278,14.684-8.6c2.783-1.631,5.562-3.276,8.356-4.9a1.715,1.715,0,0,1,2.393.411,1.932,1.932,0,0,1,.269,1.134v81.84a6.317,6.317,0,0,1-2.981,5.569c-.337.209-.028.741.312.532a6.927,6.927,0,0,0,3.286-6.052V53.648c0-1.982.021-3.964,0-5.942a2.308,2.308,0,0,0-3.545-1.982c-.922.532-1.836,1.064-2.758,1.617l-12.731,7.466-14.815,8.679c-2.62,1.535-5.25,3.059-7.86,4.609A5.881,5.881,0,0,0,116,73.242v83.234a2.29,2.29,0,0,0,2.971,2.163,11.493,11.493,0,0,0,2.063-1.177l2.2-1.319,4.917-2.95q10.749-6.438,21.509-12.858l7.668-4.577a.308.308,0,0,0-.3-.532Z" transform="translate(-115.999 -45.365)" fill="#e0e0e0"/>
      <path id="Path_82" data-name="Path 82" d="M174.369,314.8l2.482-1.418a1.957,1.957,0,0,0,.819-1.563v-2.56c0-.6-.354-.879-.819-.617l-2.482,1.418a1.961,1.961,0,0,0-.819,1.563v2.556C173.55,314.783,173.919,315.06,174.369,314.8Z" transform="translate(-153.147 -215.24)" fill="#e0e0e0"/>
      <path id="Path_83" data-name="Path 83" d="M178.875,316.443a.564.564,0,0,0,.255-.443v-1.829c0-.163-.113-.227-.255-.145a.564.564,0,0,0-.255.443V316.3C178.62,316.475,178.733,316.525,178.875,316.443Z" transform="translate(-156.42 -218.758)" fill="#fff"/>
      <path id="Path_84" data-name="Path 84" d="M176.639,316.819l1.581-.915a.567.567,0,0,0,.259-.443c0-.163-.117-.227-.259-.145l-1.581.929a.567.567,0,0,0-.259.443C176.38,316.836,176.5,316.9,176.639,316.819Z" transform="translate(-154.974 -219.591)" fill="#fff"/>
      <path id="Path_85" data-name="Path 85" d="M154.849,323.925a.6.6,0,0,1,.982.564,2.007,2.007,0,0,1-.287.968,1.978,1.978,0,0,1-.709.73.684.684,0,0,1-.709.071c-.383-.22-.383-.939,0-1.6a1.967,1.967,0,0,1,.709-.73m0-.592a3.052,3.052,0,0,0-1.064,1.113c-.585,1.01-.585,2.1,0,2.436a1.063,1.063,0,0,0,1.064-.1,3.031,3.031,0,0,0,1.064-1.113c.581-1.01.581-2.1,0-2.439A1.064,1.064,0,0,0,154.835,323.333Z" transform="translate(-140.097 -224.658)" fill="#e0e0e0"/>
      <path id="Path_86" data-name="Path 86" d="M151.038,335.336a.524.524,0,0,0,.181-.191l1.117-1.932c.1-.174.1-.355,0-.418s-.262.035-.355.209l-1.117,1.932c-.1.174-.1.355,0,.418A.188.188,0,0,0,151.038,335.336Z" transform="translate(-138.456 -230.883)" fill="#e0e0e0"/>
      <path id="Path_87" data-name="Path 87" d="M194.8,298.128c.617-.354,1.117.035,1.117.876a2.7,2.7,0,0,1,1.117-2.163c.617-.355,1.117.035,1.117.872,0,2.127-2.233,4.339-2.233,4.339s-2.23.376-2.23-1.773A2.709,2.709,0,0,1,194.8,298.128Z" transform="translate(-166.147 -207.604)" fill="#e0e0e0"/>
      <path id="Path_88" data-name="Path 88" d="M218.67,286.686c0,.631.443.886.989.571a2.184,2.184,0,0,0,.989-1.712c0-.631-.443-.886-.989-.571A2.184,2.184,0,0,0,218.67,286.686Z" transform="translate(-182.271 -199.941)" fill="#e0e0e0"/>
      <path id="Path_89" data-name="Path 89" d="M218.794,291.342h0c.808-.464,1.464.028,1.464,1.106v.333l-2.928,1.691v-.337A3.518,3.518,0,0,1,218.794,291.342Z" transform="translate(-181.406 -204.026)" fill="#e0e0e0"/>
      <path id="Path_90" data-name="Path 90" d="M132.161,336.31l1.975.652v2.783l-1.531.865V339.1c0-.284-.2-.4-.443-.255a.982.982,0,0,0-.443.769v1.5L130.19,342v-2.765Z" transform="translate(-125.159 -233.165)" fill="#e0e0e0"/>
      <path id="Path_91" data-name="Path 91" d="M116.525,293.717a.2.2,0,0,1-.177-.1.206.206,0,0,1,.074-.284l43.985-25.38a.209.209,0,0,1,.284.078.206.206,0,0,1-.074.284l-43.985,25.376A.2.2,0,0,1,116.525,293.717Z" transform="translate(-116.205 -189.023)" fill="#e0e0e0"/>
      <path id="Path_92" data-name="Path 92" d="M119.591,68.912l38.355-22.48a1.96,1.96,0,0,1,2.95,1.691v3.62h0l-44,25.394V73.592A5.438,5.438,0,0,1,119.591,68.912Z" transform="translate(-116.581 -45.881)" fill="#e0e0e0"/>
      <ellipse id="Ellipse_16" data-name="Ellipse 16" cx="4.509" cy="2.602" rx="4.509" ry="2.602" transform="translate(4.149 36.935) rotate(-60)" fill="#07f"/>
      <path id="Path_93" data-name="Path 93" d="M153.75,133.558a.355.355,0,0,1-.177-.663l5.268-3.042a.356.356,0,1,1,.355.617l-5.268,3.038A.33.33,0,0,1,153.75,133.558Z" transform="translate(-140.136 -99.87)" fill="#455a64"/>
      <path id="Path_94" data-name="Path 94" d="M153.8,115.309a.355.355,0,0,1-.177-.663l14.482-8.36a.355.355,0,0,1,.355.613l-14.464,8.363A.355.355,0,0,1,153.8,115.309Z" transform="translate(-140.168 -84.663)" fill="#455a64"/>
      <path id="Path_95" data-name="Path 95" d="M137.791,299.217a7.019,7.019,0,0,1-3.191,5.523c-1.773,1.018-3.191.191-3.191-1.84a7.024,7.024,0,0,1,3.191-5.523C136.373,296.359,137.791,297.185,137.791,299.217Z" transform="translate(-125.947 -207.753)" fill="#07f"/>
      <path id="Path_96" data-name="Path 96" d="M153.75,299.9a.355.355,0,0,1-.177-.663l5.268-3.042a.355.355,0,1,1,.355.613l-5.268,3.042A.354.354,0,0,1,153.75,299.9Z" transform="translate(-140.136 -207.238)" fill="#455a64"/>
      <path id="Path_97" data-name="Path 97" d="M153.8,281.669a.355.355,0,0,1-.177-.663l14.482-8.36a.355.355,0,0,1,.355.613l-14.464,8.349A.355.355,0,0,1,153.8,281.669Z" transform="translate(-140.168 -192.045)" fill="#455a64"/>
      <path id="Path_98" data-name="Path 98" d="M137.791,247.347a7.019,7.019,0,0,1-3.191,5.523c-1.773,1.017-3.191.191-3.191-1.84a7.025,7.025,0,0,1,3.191-5.523C136.373,244.489,137.791,245.315,137.791,247.347Z" transform="translate(-125.947 -174.272)" fill="#07f"/>
      <path id="Path_99" data-name="Path 99" d="M153.761,248.03a.355.355,0,0,1-.177-.659l5.268-3.042a.355.355,0,1,1,.355.613l-5.268,3.042A.355.355,0,0,1,153.761,248.03Z" transform="translate(-140.147 -173.757)" fill="#455a64"/>
      <path id="Path_100" data-name="Path 100" d="M153.809,229.783a.354.354,0,0,1-.177-.659l14.482-8.36a.354.354,0,0,1,.355.613L154,229.737A.354.354,0,0,1,153.809,229.783Z" transform="translate(-140.177 -158.552)" fill="#455a64"/>
      <text id="Status_updated" data-name="Status updated" transform="translate(5.485 83.771)" fill="#455a64" font-size="1" font-family="Montserrat-ExtraBold, Montserrat" font-weight="800"><tspan x="0" y="0">Status updated</tspan></text>
      <path id="Path_101" data-name="Path 101" d="M164,135.832l-31.169,18a.932.932,0,0,1-1.4-.808V133.3a2.258,2.258,0,0,1,1.127-1.957l31.169-18a.936.936,0,0,1,1.4.808v19.732A2.251,2.251,0,0,1,164,135.832Z" transform="translate(-125.959 -89.166)" fill="#07f"/>
      <path id="Path_102" data-name="Path 102" d="M164,135.832l-31.169,18a.932.932,0,0,1-1.4-.808V133.3a2.258,2.258,0,0,1,1.127-1.957l31.169-18a.936.936,0,0,1,1.4.808v19.732A2.251,2.251,0,0,1,164,135.832Z" transform="translate(-125.959 -89.166)" fill="#fff" opacity="0.5"/>
      <ellipse id="Ellipse_17" data-name="Ellipse 17" cx="8.806" cy="5.084" rx="8.806" ry="5.084" transform="translate(13.856 52.423) rotate(-60)" fill="#fff"/>
      <path id="Path_103" data-name="Path 103" d="M165.13,150.62v7.406A2.255,2.255,0,0,1,164,159.972l-31.173,18a.929.929,0,0,1-1.4-.808v-7.09Z" transform="translate(-125.959 -113.305)" fill="#07f"/>
      <path id="Path_104" data-name="Path 104" d="M155.459,199.791a.734.734,0,0,1-.468-.2c-.145-.113-.2-.152-.39-.046a.213.213,0,1,1-.213-.354.674.674,0,0,1,.865.078c.145.113.2.156.39.046a1.584,1.584,0,0,0,.546-.709,1.929,1.929,0,0,1,.709-.872.67.67,0,0,1,.861.078c.149.117.2.156.393.046a1.546,1.546,0,0,0,.542-.709,1.953,1.953,0,0,1,.709-.876.677.677,0,0,1,.865.078c.145.113.2.156.39.046a.216.216,0,0,1,.291.078.213.213,0,0,1-.078.291.674.674,0,0,1-.865-.078c-.145-.113-.2-.156-.39-.046a1.539,1.539,0,0,0-.546.709,1.953,1.953,0,0,1-.709.872.674.674,0,0,1-.865-.078c-.145-.113-.2-.156-.39-.046a1.546,1.546,0,0,0-.546.709,1.921,1.921,0,0,1-.709.876A.783.783,0,0,1,155.459,199.791Z" transform="translate(-140.682 -142.694)" fill="#07f"/>
      <g id="Group_16700" data-name="Group 16700" transform="translate(13.557 53.456)" opacity="0.5">
        <path id="Path_105" data-name="Path 105" d="M155.459,199.791a.734.734,0,0,1-.468-.2c-.145-.113-.2-.152-.39-.046a.213.213,0,1,1-.213-.354.674.674,0,0,1,.865.078c.145.113.2.156.39.046a1.584,1.584,0,0,0,.546-.709,1.929,1.929,0,0,1,.709-.872.67.67,0,0,1,.861.078c.149.117.2.156.393.046a1.546,1.546,0,0,0,.542-.709,1.953,1.953,0,0,1,.709-.876.677.677,0,0,1,.865.078c.145.113.2.156.39.046a.216.216,0,0,1,.291.078.213.213,0,0,1-.078.291.674.674,0,0,1-.865-.078c-.145-.113-.2-.156-.39-.046a1.539,1.539,0,0,0-.546.709,1.953,1.953,0,0,1-.709.872.674.674,0,0,1-.865-.078c-.145-.113-.2-.156-.39-.046a1.546,1.546,0,0,0-.546.709,1.921,1.921,0,0,1-.709.876A.783.783,0,0,1,155.459,199.791Z" transform="translate(-154.239 -196.149)" fill="#fff"/>
      </g>
      <path id="Path_106" data-name="Path 106" d="M199.559,174.862a.744.744,0,0,1-.468-.2c-.149-.113-.2-.156-.39-.046a.213.213,0,1,1-.213-.355.666.666,0,0,1,.861.082c.145.113.2.156.39.046a1.556,1.556,0,0,0,.546-.709,1.929,1.929,0,0,1,.709-.872.677.677,0,0,1,.865.078c.145.113.2.156.39.046a1.585,1.585,0,0,0,.546-.709,1.929,1.929,0,0,1,.709-.872.674.674,0,0,1,.865.078c.145.113.2.156.39.046a.213.213,0,0,1,.291.078.209.209,0,0,1-.078.291.674.674,0,0,1-.861-.078c-.149-.113-.2-.156-.394-.046a1.585,1.585,0,0,0-.546.709,1.928,1.928,0,0,1-.709.872.677.677,0,0,1-.865-.078c-.145-.113-.2-.156-.39-.046a1.574,1.574,0,0,0-.546.709,1.922,1.922,0,0,1-.709.876A.823.823,0,0,1,199.559,174.862Z" transform="translate(-169.148 -126.606)" fill="#07f"/>
      <g id="Group_16701" data-name="Group 16701" transform="translate(29.191 44.62)" opacity="0.5">
        <path id="Path_107" data-name="Path 107" d="M199.559,174.862a.744.744,0,0,1-.468-.2c-.149-.113-.2-.156-.39-.046a.213.213,0,1,1-.213-.355.666.666,0,0,1,.861.082c.145.113.2.156.39.046a1.556,1.556,0,0,0,.546-.709,1.929,1.929,0,0,1,.709-.872.677.677,0,0,1,.865.078c.145.113.2.156.39.046a1.585,1.585,0,0,0,.546-.709,1.929,1.929,0,0,1,.709-.872.674.674,0,0,1,.865.078c.145.113.2.156.39.046a.213.213,0,0,1,.291.078.209.209,0,0,1-.078.291.674.674,0,0,1-.861-.078c-.149-.113-.2-.156-.394-.046a1.585,1.585,0,0,0-.546.709,1.928,1.928,0,0,1-.709.872.677.677,0,0,1-.865-.078c-.145-.113-.2-.156-.39-.046a1.574,1.574,0,0,0-.546.709,1.922,1.922,0,0,1-.709.876A.823.823,0,0,1,199.559,174.862Z" transform="translate(-198.339 -171.227)" fill="#fff"/>
      </g>
      <path id="Path_108" data-name="Path 108" d="M171.644,185.21a.752.752,0,0,1-.468-.2c-.145-.113-.2-.156-.39-.046a.216.216,0,0,1-.291-.078.209.209,0,0,1,.078-.291.674.674,0,0,1,.865.078c.145.113.2.156.39.046a1.564,1.564,0,0,0,.542-.709,1.968,1.968,0,0,1,.709-.876.67.67,0,0,1,.865.082c.145.113.2.156.39.046a1.556,1.556,0,0,0,.546-.709,1.943,1.943,0,0,1,.709-.876.67.67,0,0,1,.865.082c.149.113.2.156.394.046a.213.213,0,1,1,.213.355.666.666,0,0,1-.865-.078c-.145-.113-.2-.156-.394-.046a1.574,1.574,0,0,0-.542.709,1.943,1.943,0,0,1-.709.872.666.666,0,0,1-.861-.078c-.149-.113-.2-.156-.394-.046a1.556,1.556,0,0,0-.542.709,1.953,1.953,0,0,1-.709.872A.783.783,0,0,1,171.644,185.21Z" transform="translate(-151.156 -133.275)" fill="#07f"/>
      <g id="Group_16702" data-name="Group 16702" transform="translate(19.309 48.283)" opacity="0.5">
        <path id="Path_109" data-name="Path 109" d="M171.644,185.21a.752.752,0,0,1-.468-.2c-.145-.113-.2-.156-.39-.046a.216.216,0,0,1-.291-.078.209.209,0,0,1,.078-.291.674.674,0,0,1,.865.078c.145.113.2.156.39.046a1.564,1.564,0,0,0,.542-.709,1.968,1.968,0,0,1,.709-.876.67.67,0,0,1,.865.082c.145.113.2.156.39.046a1.556,1.556,0,0,0,.546-.709,1.943,1.943,0,0,1,.709-.876.67.67,0,0,1,.865.082c.149.113.2.156.394.046a.213.213,0,1,1,.213.355.666.666,0,0,1-.865-.078c-.145-.113-.2-.156-.394-.046a1.574,1.574,0,0,0-.542.709,1.943,1.943,0,0,1-.709.872.666.666,0,0,1-.861-.078c-.149-.113-.2-.156-.394-.046a1.556,1.556,0,0,0-.542.709,1.953,1.953,0,0,1-.709.872A.783.783,0,0,1,171.644,185.21Z" transform="translate(-170.466 -181.558)" fill="#fff"/>
      </g>
      <path id="Path_110" data-name="Path 110" d="M136.149,207.026a.674.674,0,0,1-.865-.082c-.149-.11-.2-.152-.39-.043a1.613,1.613,0,0,0-.549.709,1.95,1.95,0,0,1-.709.876.681.681,0,0,1-.865-.082c-.149-.113-.2-.156-.394-.046a1.62,1.62,0,0,0-.546.709,2.549,2.549,0,0,1-.411.635v-.759l.035-.071a1.939,1.939,0,0,1,.709-.872.666.666,0,0,1,.865.078c.145.113.2.16.39.046a1.528,1.528,0,0,0,.546-.709,1.943,1.943,0,0,1,.709-.876.677.677,0,0,1,.869.082c.142.11.2.152.39.043a.213.213,0,0,1,.287.078A.209.209,0,0,1,136.149,207.026Z" transform="translate(-125.953 -149.323)" fill="#07f"/>
      <g id="Group_16703" data-name="Group 16703" transform="translate(5.467 57.097)" opacity="0.5">
        <path id="Path_111" data-name="Path 111" d="M136.149,207.026a.674.674,0,0,1-.865-.082c-.149-.11-.2-.152-.39-.043a1.613,1.613,0,0,0-.549.709,1.95,1.95,0,0,1-.709.876.681.681,0,0,1-.865-.082c-.149-.113-.2-.156-.394-.046a1.62,1.62,0,0,0-.546.709,2.549,2.549,0,0,1-.411.635v-.759l.035-.071a1.939,1.939,0,0,1,.709-.872.666.666,0,0,1,.865.078c.145.113.2.16.39.046a1.528,1.528,0,0,0,.546-.709,1.943,1.943,0,0,1,.709-.876.677.677,0,0,1,.869.082c.142.11.2.152.39.043a.213.213,0,0,1,.287.078A.209.209,0,0,1,136.149,207.026Z" transform="translate(-131.42 -206.419)" fill="#fff"/>
      </g>
      <path id="Path_112" data-name="Path 112" d="M217.134,157.52v.525a2.043,2.043,0,0,0-.394.585,1.982,1.982,0,0,1-.709.876.67.67,0,0,1-.861-.082c-.149-.11-.2-.156-.394-.046a1.6,1.6,0,0,0-.546.709,1.9,1.9,0,0,1-.709.876.773.773,0,0,1-.394.121.744.744,0,0,1-.468-.2c-.145-.113-.2-.16-.394-.046a.213.213,0,0,1-.209-.355.677.677,0,0,1,.861.082c.145.117.2.156.394.046a1.557,1.557,0,0,0,.542-.709,2,2,0,0,1,.709-.872.681.681,0,0,1,.865.078c.145.113.2.16.39.05a1.581,1.581,0,0,0,.546-.709,1.943,1.943,0,0,1,.709-.876Z" transform="translate(-177.963 -117.759)" fill="#07f"/>
      <g id="Group_16704" data-name="Group 16704" transform="translate(34.032 39.761)" opacity="0.5">
        <path id="Path_113" data-name="Path 113" d="M217.134,157.52v.525a2.043,2.043,0,0,0-.394.585,1.982,1.982,0,0,1-.709.876.67.67,0,0,1-.861-.082c-.149-.11-.2-.156-.394-.046a1.6,1.6,0,0,0-.546.709,1.9,1.9,0,0,1-.709.876.773.773,0,0,1-.394.121.744.744,0,0,1-.468-.2c-.145-.113-.2-.16-.394-.046a.213.213,0,0,1-.209-.355.677.677,0,0,1,.861.082c.145.117.2.156.394.046a1.557,1.557,0,0,0,.542-.709,2,2,0,0,1,.709-.872.681.681,0,0,1,.865.078c.145.113.2.16.39.05a1.581,1.581,0,0,0,.546-.709,1.943,1.943,0,0,1,.709-.876Z" transform="translate(-211.996 -157.52)" fill="#fff"/>
      </g>
      <path id="Path_114" data-name="Path 114" d="M143.385,169.191l-.872.5v-.436h0a.431.431,0,0,0-.709-.355,1.418,1.418,0,0,0-.429.411c-.085-.553-.539-.755-1.085-.44a2.439,2.439,0,0,0-1.1,1.911v.659a.3.3,0,0,1-.149.259l-.514.3a.745.745,0,0,0-.355.638.3.3,0,0,0,.457.262l4.765-2.751a.833.833,0,0,0,.415-.709.269.269,0,0,0-.422-.248Z" transform="translate(-130.31 -124.988)" fill="#fff"/>
      <path id="Path_115" data-name="Path 115" d="M203.5,136.706l-.872.5v-.443h0a.43.43,0,0,0-.709-.355,1.348,1.348,0,0,0-.429.411c-.085-.557-.539-.755-1.088-.44a2.436,2.436,0,0,0-1.1,1.907v.663a.3.3,0,0,1-.149.259l-.514.3a.741.741,0,0,0-.355.638.3.3,0,0,0,.457.266l4.765-2.755a.833.833,0,0,0,.415-.709.269.269,0,0,0-.422-.237Z" transform="translate(-169.116 -104.015)" fill="#fff"/>
      <path id="Path_116" data-name="Path 116" d="M151.248,178.919l-.6.355v-.3h0c-.021-.28-.234-.39-.493-.241a.982.982,0,0,0-.3.284c-.057-.379-.355-.518-.744-.3a1.673,1.673,0,0,0-.755,1.312v.454a.209.209,0,0,1-.1.177l-.355.206a.51.51,0,0,0-.252.44.209.209,0,0,0,.312.181l3.272-1.89a.574.574,0,0,0,.287-.5.184.184,0,0,0-.273-.177Z" transform="translate(-136.429 -131.373)" fill="#fff"/>
      <path id="Path_117" data-name="Path 117" d="M131.33,207.588a.2.2,0,0,1-.181-.1.209.209,0,0,1,.074-.284l33.5-19.342a.209.209,0,0,1,.209.362l-33.5,19.342a.22.22,0,0,1-.1.025Z" transform="translate(-125.761 -137.325)" fill="#e0e0e0"/>
      <path id="Path_118" data-name="Path 118" d="M131.327,259.274a.209.209,0,0,1-.106-.39l33.5-19.342a.209.209,0,0,1,.284.078.206.206,0,0,1-.074.284l-33.5,19.342A.223.223,0,0,1,131.327,259.274Z" transform="translate(-125.757 -170.685)" fill="#e0e0e0"/>
    </g>
  </g>
</svg>
