<svg xmlns="http://www.w3.org/2000/svg" width="113.436" height="60.938" viewBox="0 0 113.436 60.938">
  <g id="OBJECTS" transform="translate(-106.777 -123.468)">
    <g id="Group_17690" data-name="Group 17690" transform="translate(106.777 123.468)">
      <g id="Group_17669" data-name="Group 17669" transform="translate(0 52.073)">
        <path id="Path_5432" data-name="Path 5432" d="M-135.189-20.9a3.9,3.9,0,0,0-2.619-.882c-1.678,0-3.259.941-3.259,2.741,0,2.812,4.007,1.978,4.007,3.527,0,.6-.688.882-1.3.882a2.1,2.1,0,0,1-1.642-.8l-1.34,1.454a4.088,4.088,0,0,0,2.873,1.06c1.762,0,3.3-.894,3.3-2.776,0-2.955-3.935-1.966-3.935-3.5,0-.632.736-.87,1.267-.87a1.835,1.835,0,0,1,1.364.56Zm8.751-.667h-1.883v5.112a1.726,1.726,0,0,1-1.714,1.823,1.728,1.728,0,0,1-1.726-1.823v-5.112h-1.883v5.183a3.282,3.282,0,0,0,3.609,3.467,3.279,3.279,0,0,0,3.6-3.467Zm8.908,1.025a3.691,3.691,0,0,0-2.885-1.239,4.3,4.3,0,0,0-4.611,4.433,4.3,4.3,0,0,0,4.611,4.433,3.748,3.748,0,0,0,3.09-1.466l-1.569-1.156a2.051,2.051,0,0,1-1.762.906,2.515,2.515,0,0,1-2.414-2.717,2.525,2.525,0,0,1,2.474-2.717,2.028,2.028,0,0,1,1.617.691Zm8.4,0a3.691,3.691,0,0,0-2.885-1.239,4.3,4.3,0,0,0-4.611,4.433,4.3,4.3,0,0,0,4.611,4.433,3.748,3.748,0,0,0,3.09-1.466l-1.569-1.156a2.051,2.051,0,0,1-1.762.906,2.515,2.515,0,0,1-2.414-2.717,2.525,2.525,0,0,1,2.474-2.717,2.028,2.028,0,0,1,1.617.691Zm1.436,7.412h6.023v-1.716h-4.14v-1.716h3.706v-1.716h-3.706V-19.85h3.923v-1.716h-5.806ZM-94.512-20.9a3.9,3.9,0,0,0-2.619-.882c-1.678,0-3.259.941-3.259,2.741,0,2.812,4.007,1.978,4.007,3.527,0,.6-.688.882-1.3.882a2.1,2.1,0,0,1-1.642-.8l-1.34,1.454a4.088,4.088,0,0,0,2.873,1.06c1.762,0,3.3-.894,3.3-2.776,0-2.955-3.935-1.966-3.935-3.5,0-.632.736-.87,1.267-.87a1.835,1.835,0,0,1,1.364.56Zm7.061,0a3.9,3.9,0,0,0-2.619-.882c-1.678,0-3.259.941-3.259,2.741,0,2.812,4.007,1.978,4.007,3.527,0,.6-.688.882-1.3.882a2.1,2.1,0,0,1-1.642-.8l-1.34,1.454a4.089,4.089,0,0,0,2.873,1.06c1.762,0,3.3-.894,3.3-2.776,0-2.955-3.935-1.966-3.935-3.5,0-.632.736-.87,1.267-.87a1.835,1.835,0,0,1,1.364.56Zm4.369,7.769h2.076l.712-1.787h3.319l.736,1.787h2.124l-3.718-8.436h-1.557Zm5.468-3.36H-79.7l1.038-2.621Zm4.466,3.36h1.883v-8.436h-1.883Zm3.73,0h1.883V-16.5h.929l1.786,3.372h2.257l-2.173-3.563A2.178,2.178,0,0,0-62.888-19c0-1.966-1.473-2.562-3.223-2.562h-3.307Zm1.883-6.863H-66.3c.688,0,1.461.131,1.461.977,0,.918-.893.941-1.581.941h-1.11Zm6.144,6.863h5.371v-1.716h-3.488v-6.72h-1.883Zm6.518,0h1.883v-8.436h-1.883Zm3.73,0h1.883v-6.006h.024l3.73,6.006h2.462v-8.436h-1.883V-15.7h-.024l-3.633-5.863h-2.559Zm10.042,0h6.023v-1.716h-4.14v-1.716h3.706v-1.716h-3.706V-19.85H-35.3v-1.716H-41.1ZM-27.921-20.9a3.9,3.9,0,0,0-2.619-.882c-1.678,0-3.259.941-3.259,2.741,0,2.812,4.007,1.978,4.007,3.527,0,.6-.688.882-1.3.882a2.1,2.1,0,0,1-1.642-.8l-1.34,1.454a4.088,4.088,0,0,0,2.873,1.06c1.762,0,3.3-.894,3.3-2.776,0-2.955-3.935-1.966-3.935-3.5,0-.632.736-.87,1.267-.87a1.835,1.835,0,0,1,1.364.56Z" transform="translate(141.345 21.78)" fill="#07f"/>
      </g>
      <g id="Group_17689" data-name="Group 17689" transform="translate(0 0)">
        <g id="Group_17688" data-name="Group 17688">
          <g id="Group_17681" data-name="Group 17681" transform="translate(0 20.282)">
            <g id="Group_17680" data-name="Group 17680" transform="translate(0 0)">
              <path id="Path_5415" data-name="Path 5415" d="M262.547,211.133l30.388-2.894,3.61-3.827-32.495-.454Z" transform="translate(-200.551 -197.937)" fill="#07f"/>
              <path id="Path_5416" data-name="Path 5416" d="M315.628,199.09h-49.3v-5.323l49.3,3.85Z" transform="translate(-202.831 -191.793)" fill="#0056be"/>
              <path id="Path_5417" data-name="Path 5417" d="M161.874,197.136l-.1-4.5-53.832,3.831v1.119Z" transform="translate(-107.353 -191.114)" fill="#0056be"/>
              <path id="Path_5418" data-name="Path 5418" d="M315.628,196.835h-49.3v-5.323l49.3,3.85Z" transform="translate(-202.831 -190.434)" fill="#fff"/>
              <path id="Path_5418_-_Outline" data-name="Path 5418 - Outline" d="M316.058,197.252H265.582V190.7l50.476,3.942Zm-49.3-1.177h48.122v-.34l-48.122-3.758Z" transform="translate(-202.672 -190.263)" fill="#07f"/>
              <path id="Path_5419" data-name="Path 5419" d="M161.874,194.881l-.1-4.5-53.832,3.831v1.118Z" transform="translate(-107.353 -189.755)" fill="#fff"/>
              <path id="Path_5419_-_Outline" data-name="Path 5419 - Outline" d="M107.195,195.758V193.5l54.995-3.913.128,5.71Zm53.846-4.912-52.3,3.722,52.375-.441Z" transform="translate(-107.195 -189.585)" fill="#0056be"/>
              <path id="Path_5420" data-name="Path 5420" d="M161.874,194.881l-.1-4.5-53.832,3.831v1.118Z" transform="translate(-107.353 -189.755)" fill="#fff"/>
              <path id="Path_5420_-_Outline" data-name="Path 5420 - Outline" d="M107.195,195.758V193.5l54.995-3.913.128,5.71Zm53.846-4.912-52.3,3.722,52.375-.441Z" transform="translate(-107.195 -189.585)" fill="#07f"/>
              <path id="Path_5421" data-name="Path 5421" d="M315.628,199.09h-49.3v-5.323l49.3,3.85Z" transform="translate(-202.831 -191.793)" fill="#07f"/>
              <path id="Path_5422" data-name="Path 5422" d="M390.421,189.446h-.539l-.539,7.039h1.078Z" transform="translate(-276.985 -189.189)" fill="#07f"/>
            </g>
          </g>
          <g id="Group_17683" data-name="Group 17683" transform="translate(0.254 19.719)">
            <g id="Group_17682" data-name="Group 17682">
              <path id="Path_5423" data-name="Path 5423" d="M107.1,187.378h.539l.539,7.039H107.1Z" transform="translate(-107.1 -187.378)" fill="#07f"/>
              <path id="Path_5424" data-name="Path 5424" d="M161.874,197.136l-.1-4.5-53.832,3.831v1.119Z" transform="translate(-107.608 -190.55)" fill="#07f"/>
            </g>
            <path id="Path_5425" data-name="Path 5425" d="M191.6,211.133l-27.179-2.894-4.038-4.281H193.31Z" transform="translate(-139.222 -197.373)" fill="#07f"/>
          </g>
          <path id="Path_5426" data-name="Path 5426" d="M203.2,230.216l-22.7,3.135v1.278h45.4v-1.278Z" transform="translate(-151.092 -193.483)" fill="#fff"/>
          <path id="Path_5426_-_Outline" data-name="Path 5426 - Outline" d="M203.043,229.462l.081.011,23.21,3.2v2.379H179.752v-2.379Zm22.114,4.242-22.114-3.053L180.929,233.7v.176h44.228Z" transform="translate(-150.933 -193.323)" fill="#07f"/>
          <path id="Path_5427" data-name="Path 5427" d="M203.2,233.433l-22.7,3.135h45.4Z" transform="translate(-151.092 -195.422)" fill="#07f"/>
          <g id="Group_17684" data-name="Group 17684" transform="translate(40.276 21.167)">
            <path id="Path_5428" data-name="Path 5428" d="M215.489,197.026c-.894,2.488-3.249,3.92-5.259,3.2s-2.915-3.325-2.021-5.814,3.249-3.92,5.259-3.2S216.383,194.538,215.489,197.026Z" transform="translate(-207.864 -191.025)" fill="#fff"/>
            <circle id="Ellipse_53" data-name="Ellipse 53" cx="3.104" cy="3.104" r="3.104" transform="translate(1.324 0.204)" fill="#07f"/>
          </g>
          <g id="Group_17686" data-name="Group 17686" transform="translate(49.668)">
            <path id="Path_5429" data-name="Path 5429" d="M252.876,147.475c2.639-10.541-9.367-10.787-11.738-1.918l-7.92,29.62a5.383,5.383,0,1,0,10.456,2.488c.01-.055.013-.11.021-.166l.02,0S252.66,148.336,252.876,147.475Z" transform="translate(-232.404 -138.626)" fill="#fff"/>
            <path id="Path_5429_-_Outline" data-name="Path 5429 - Outline" d="M248.223,138.468h0a5.2,5.2,0,0,1,4.212,1.963c.9,1.156,1.782,3.314.852,7.029-.217.866-8.8,28.867-9.169,30.058l-.021.068,0,.024a5.968,5.968,0,0,1-6.943,4.836,5.986,5.986,0,0,1-4.658-7.587l7.918-29.613a9.579,9.579,0,0,1,3.169-5.047A7.47,7.47,0,0,1,248.223,138.468Zm-5.071,38.188c3.13-10.209,8.829-28.824,8.994-29.482.645-2.576.424-4.658-.638-6.019a4.049,4.049,0,0,0-3.284-1.51h0c-2.455,0-5.591,1.848-6.676,5.906l-7.92,29.62,0,.015a4.73,4.73,0,0,0-.122.508,4.794,4.794,0,1,0,9.434,1.708c0-.011,0-.033.007-.053s.007-.064.012-.1l.094-.619Z" transform="translate(-232.245 -138.468)" fill="#07f"/>
            <g id="Group_17685" data-name="Group 17685" transform="translate(8.87 0.005)">
              <path id="Path_5430" data-name="Path 5430" d="M255.964,144.869h0c-.268,0-.454-.088-1.234-.969l0-.005a.589.589,0,0,1-.087-.655,8.994,8.994,0,0,1,3.125-3.549,7.255,7.255,0,0,1,3.925-1.212,5.162,5.162,0,0,1,4.942,3.237.589.589,0,0,1-1.01.584,4.045,4.045,0,0,0-3.3-1.527,6.976,6.976,0,0,0-5.829,3.786A.6.6,0,0,1,255.964,144.869Zm5.2-5.313a6.77,6.77,0,0,0-4.924,3.024,8.1,8.1,0,0,1,2.007-1.954A7.951,7.951,0,0,1,261.16,139.556Z" transform="translate(-254.576 -138.479)" fill="#07f"/>
            </g>
            <path id="Path_5431" data-name="Path 5431" d="M256.453,158.116a5.968,5.968,0,0,0-9.42,3.179l-.006,0-7.92,29.621a5.457,5.457,0,0,0-.137.571c-.02.112-.03.222-.043.334a5.335,5.335,0,0,0,2.064.848,5.394,5.394,0,0,0,6.259-4.361c.01-.055.013-.11.021-.166l.02,0S256.406,158.868,256.453,158.116Z" transform="translate(-235.981 -149.267)" fill="#07f"/>
          </g>
          <g id="Group_17687" data-name="Group 17687" transform="translate(72.237 20.099)">
            <ellipse id="Ellipse_54" data-name="Ellipse 54" cx="4.76" cy="3.868" rx="4.76" ry="3.868" transform="translate(0 8.959) rotate(-70.235)" fill="#fff"/>
            <circle id="Ellipse_55" data-name="Ellipse 55" cx="3.104" cy="3.104" r="3.104" transform="translate(2.598 1.271)" fill="#07f"/>
          </g>
        </g>
      </g>
    </g>
  </g>
</svg>
